solid OpenSCAD_Model
  facet normal -1 0 0
    outer loop
      vertex 0 -0.5 0
      vertex 0 -0.5 45
      vertex 0 0.5 0
    endloop
  endfacet
  facet normal -1 0 0
    outer loop
      vertex 0 0.5 0
      vertex 0 -0.5 45
      vertex 0 0.5 45
    endloop
  endfacet
  facet normal 0 -1 0
    outer loop
      vertex 0 -0.5 45
      vertex 0 -0.5 0
      vertex 2 -0.5 0
    endloop
  endfacet
  facet normal 0 -1 0
    outer loop
      vertex 18 -0.5 43
      vertex 0 -0.5 45
      vertex 2 -0.5 43
    endloop
  endfacet
  facet normal 0 -1 0
    outer loop
      vertex 2 -0.5 43
      vertex 0 -0.5 45
      vertex 2 -0.5 0
    endloop
  endfacet
  facet normal 0 -1 0
    outer loop
      vertex 20 -0.5 45
      vertex 0 -0.5 45
      vertex 18 -0.5 43
    endloop
  endfacet
  facet normal 0 -1 0
    outer loop
      vertex 20 -0.5 0
      vertex 18 -0.5 43
      vertex 18 -0.5 0
    endloop
  endfacet
  facet normal 0 -1 0
    outer loop
      vertex 20 -0.5 45
      vertex 18 -0.5 43
      vertex 20 -0.5 0
    endloop
  endfacet
  facet normal 0 0 -1
    outer loop
      vertex 0 -0.5 0
      vertex 0 0.5 0
      vertex 2 -0.5 0
    endloop
  endfacet
  facet normal 0 0 -1
    outer loop
      vertex 2 -0.5 0
      vertex 0 0.5 0
      vertex 2 0.5 0
    endloop
  endfacet
  facet normal 0 1 0
    outer loop
      vertex 0 0.5 0
      vertex 0 0.5 45
      vertex 2 0.5 0
    endloop
  endfacet
  facet normal 0 1 0
    outer loop
      vertex 18 0.5 43
      vertex 0 0.5 45
      vertex 20 0.5 45
    endloop
  endfacet
  facet normal 0 1 0
    outer loop
      vertex 18 0.5 0
      vertex 20 0.5 45
      vertex 20 0.5 0
    endloop
  endfacet
  facet normal 0 1 0
    outer loop
      vertex 2 0.5 43
      vertex 0 0.5 45
      vertex 18 0.5 43
    endloop
  endfacet
  facet normal 0 1 0
    outer loop
      vertex 2 0.5 0
      vertex 0 0.5 45
      vertex 2 0.5 43
    endloop
  endfacet
  facet normal 0 1 0
    outer loop
      vertex 18 0.5 43
      vertex 20 0.5 45
      vertex 18 0.5 0
    endloop
  endfacet
  facet normal 0 0 1
    outer loop
      vertex 0 0.5 45
      vertex 0 -0.5 45
      vertex 20 -0.5 45
    endloop
  endfacet
  facet normal 0 0 1
    outer loop
      vertex 20 0.5 45
      vertex 0 0.5 45
      vertex 20 -0.5 45
    endloop
  endfacet
  facet normal 1 0 0
    outer loop
      vertex 20 -0.5 45
      vertex 20 -0.5 0
      vertex 20 0.5 0
    endloop
  endfacet
  facet normal 1 0 0
    outer loop
      vertex 20 0.5 45
      vertex 20 -0.5 45
      vertex 20 0.5 0
    endloop
  endfacet
  facet normal 0 0 -1
    outer loop
      vertex 18 -0.5 0
      vertex 18 0.5 0
      vertex 20 -0.5 0
    endloop
  endfacet
  facet normal 0 0 -1
    outer loop
      vertex 20 -0.5 0
      vertex 18 0.5 0
      vertex 20 0.5 0
    endloop
  endfacet
  facet normal -1 0 0
    outer loop
      vertex 18 0.5 43
      vertex 18 0.5 0
      vertex 18 -0.5 43
    endloop
  endfacet
  facet normal -1 0 0
    outer loop
      vertex 18 -0.5 43
      vertex 18 0.5 0
      vertex 18 -0.5 0
    endloop
  endfacet
  facet normal 0 0 -1
    outer loop
      vertex 18 0.5 43
      vertex 18 -0.5 43
      vertex 2 0.5 43
    endloop
  endfacet
  facet normal 0 0 -1
    outer loop
      vertex 2 0.5 43
      vertex 18 -0.5 43
      vertex 2 -0.5 43
    endloop
  endfacet
  facet normal 1 0 0
    outer loop
      vertex 2 0.5 0
      vertex 2 0.5 43
      vertex 2 -0.5 43
    endloop
  endfacet
  facet normal 1 0 0
    outer loop
      vertex 2 -0.5 0
      vertex 2 0.5 0
      vertex 2 -0.5 43
    endloop
  endfacet
  facet normal -6.12303e-017 -1 0
    outer loop
      vertex -0.5 2 43
      vertex -0.5 2 0
      vertex 0.5 2 0
    endloop
  endfacet
  facet normal -6.12303e-017 -1 0
    outer loop
      vertex 0.5 2 43
      vertex -0.5 2 43
      vertex 0.5 2 0
    endloop
  endfacet
  facet normal 0 0 -1
    outer loop
      vertex -0.5 2 0
      vertex -0.5 18 0
      vertex 0.5 2 0
    endloop
  endfacet
  facet normal 0 0 -1
    outer loop
      vertex 0.5 2 0
      vertex -0.5 18 0
      vertex 0.5 18 0
    endloop
  endfacet
  facet normal -1 6.12303e-017 0
    outer loop
      vertex -0.5 2 0
      vertex -0.5 2 43
      vertex -0.5 18 0
    endloop
  endfacet
  facet normal -1 6.12303e-017 0
    outer loop
      vertex -0.5 18 0
      vertex -0.5 2 43
      vertex -0.5 18 43
    endloop
  endfacet
  facet normal 0 0 1
    outer loop
      vertex -0.5 18 43
      vertex -0.5 2 43
      vertex 0.5 2 43
    endloop
  endfacet
  facet normal 0 0 1
    outer loop
      vertex 0.5 18 43
      vertex -0.5 18 43
      vertex 0.5 2 43
    endloop
  endfacet
  facet normal 1 -6.12303e-017 0
    outer loop
      vertex 0.5 2 43
      vertex 0.5 2 0
      vertex 0.5 18 0
    endloop
  endfacet
  facet normal 1 -6.12303e-017 0
    outer loop
      vertex 0.5 18 43
      vertex 0.5 2 43
      vertex 0.5 18 0
    endloop
  endfacet
  facet normal 6.12303e-017 1 0
    outer loop
      vertex -0.5 18 0
      vertex -0.5 18 43
      vertex 0.5 18 0
    endloop
  endfacet
  facet normal 6.12303e-017 1 0
    outer loop
      vertex 0.5 18 0
      vertex -0.5 18 43
      vertex 0.5 18 43
    endloop
  endfacet
endsolid OpenSCAD_Model
